<?xml version="1.0" standalone="no"?>
<!DOCTYPE svg PUBLIC "-//W3C//DTD SVG 20010904//EN"
 "http://www.w3.org/TR/2001/REC-SVG-20010904/DTD/svg10.dtd">
<svg version="1.0" xmlns="http://www.w3.org/2000/svg"
 width="32.000000pt" height="32.000000pt" viewBox="0 0 32.000000 32.000000"
 preserveAspectRatio="xMidYMid meet">

<g transform="translate(0.000000,32.000000) scale(0.100000,-0.100000)"
fill="#000000" stroke="none">
<path d="M183 238 c-58 -58 -84 -93 -89 -115 -8 -38 5 -42 59 -19 37 15 167
147 167 168 0 16 -31 48 -46 48 -5 0 -46 -37 -91 -82z m114 47 c3 -9 3 -19 -1
-22 -7 -7 -36 16 -36 28 0 15 30 10 37 -6z m-36 -31 c11 -13 4 -23 -44 -72
-54 -54 -58 -56 -74 -39 -16 16 -14 20 37 72 30 30 57 55 61 55 4 0 12 -7 20
-16z m-123 -132 c2 -7 -3 -12 -12 -12 -9 0 -16 7 -16 16 0 17 22 14 28 -4z"/>
<path d="M17 279 c-15 -9 -17 -26 -17 -132 0 -82 4 -127 12 -135 17 -17 259
-17 276 0 7 7 11 34 10 62 l-1 51 -6 -50 -6 -50 -133 -3 -133 -3 3 123 3 123
43 3 c23 2 42 7 42 13 0 12 -70 11 -93 -2z"/>
</g>
</svg>
